<?xml version="1.0" encoding="UTF-8" standalone="no"?><!DOCTYPE svg PUBLIC "-//W3C//DTD SVG 1.1//EN" "http://www.w3.org/Graphics/SVG/1.1/DTD/svg11.dtd"><svg width="100%" height="100%" viewBox="0 0 123 123" version="1.1" xmlns="http://www.w3.org/2000/svg" xmlns:xlink="http://www.w3.org/1999/xlink" xml:space="preserve" xmlns:serif="http://www.serif.com/" style="fill-rule:evenodd;clip-rule:evenodd;stroke-linejoin:round;stroke-miterlimit:2;"><g id="Layer3"></g><g><g><path d="M38.397,74.242c0.342,-0.197 1.003,-0.54 1.738,-0.721c1.771,-0.436 6.915,-0.744 10.083,-2.775c0.846,-0.542 2.289,-1.102 3.975,-1.485c2.673,-0.609 6.112,-0.935 6.642,-0.985c2.421,-0.225 2.395,-0.784 10.06,-0.214c3.76,0.28 4.932,-0.126 5.706,-0.197c1.216,-0.111 2.162,-0.008 3.472,0.59c1.06,0.485 1.887,1.276 2.443,2.253c0.642,1.13 0.785,2.574 0.797,2.828c0.036,0.739 -0.086,1.622 -0.397,2.573c0.285,0.148 0.559,0.328 0.817,0.54c1.982,1.626 2.3,4.533 0.738,6.546c-1.899,3.017 -3.396,4.278 -5.78,5.683c-1.758,1.036 -4.206,2.161 -8.378,4.834c-8.233,5.277 -18.446,6.689 -21.799,7.516c-1.939,0.478 -13.179,2.181 -18.918,1.949c-2.072,-0.084 -3.689,-0.527 -4.706,-1.023c-0.177,0.027 -0.345,0.049 -0.507,0.053c-0.953,0.021 -1.846,-0.116 -2.727,-0.458l-1.176,-0.653l-1.104,-1.157l-0.664,-1.431l-0.18,-1.288c-0.005,-0.688 0.17,-1.815 0.939,-3.018c-1.039,-0.816 -1.732,-2.061 -1.802,-3.482c-0.059,-1.196 0.209,-2.481 0.921,-3.785c0.824,-1.508 2.483,-3.237 4.714,-4.846c4.881,-3.519 12.704,-6.885 15.094,-7.847Zm0.052,-0.021c0.38,-0.153 0.612,-0.239 0.656,-0.25c-0.252,0.062 -0.484,0.163 -0.656,0.25Zm-0.268,0.151c-0.019,0.012 -0.029,0.019 -0.029,0.019c0,0 0.01,-0.007 0.029,-0.019Zm-7.267,25.432l-0.707,0.97c0.241,-0.237 0.492,-0.57 0.707,-0.97Z" style="fill:#fafafa;"/><g><path d="M82.096,71.39c0.321,0.514 1.141,1.826 1.923,7.494c1.938,14.042 -52.863,31.385 -63.396,20.739c-1.253,-1.266 -0.937,-2.837 -1.551,-4.991c-1.555,-5.454 -1.155,-7.892 6.624,-13.163c13.626,-9.233 49.575,-17.841 56.019,-10.57c0.137,0.154 0.245,0.336 0.381,0.49l-62.299,19.879c2.307,5.632 21.983,5.002 40.84,-2.328c17.534,-6.816 29.553,-18.297 12.694,-19.286c-18.684,-1.096 -53.84,12.048 -53.745,20.724c0.002,0.216 0.189,0.82 0.21,0.89l62.299,-19.879l-53.312,26.645c-1.332,0.497 -6.208,-1.249 -6.617,-1.033c-1.352,0.716 1.451,1.323 1.614,1.358c5.101,1.105 7.039,-0.021 5.808,0.902c-1.156,0.867 -3.522,0.483 -3.823,0.434c-2.051,-0.333 -4.388,-1.217 -2.65,-0.031c6.68,4.561 35.754,0.5 53.431,-11.931c2.34,-1.646 5.984,-5.094 4.874,-5.108c-0.093,-0.001 -1.166,1.712 -2.816,2.044c-1.253,0.251 0.517,-1.021 0.566,-1.085c0.19,-0.249 3.3,-2.944 2.467,-3.126c-0.001,-0 -3.071,3.21 -4.843,3.983c-0.736,0.321 -1.514,-0.485 -0.975,-0.691c1.432,-0.545 1.42,-0.571 2.598,-1.609c0.175,-0.155 0.603,-0.243 2.075,-1.793c1.852,-1.952 0.164,-1.973 0.078,-1.921c-0.371,0.225 -3.879,5.021 -16.021,10.349c-13.034,5.72 -32.5,10.194 -42.721,6.055c-0.42,-0.17 -0.635,0.251 -0.289,0.455c0.925,0.545 2.046,0.73 2.547,1.229c0.754,0.75 3.377,0.242 4.918,0.934c0.368,0.165 0.054,0.266 -0.22,0.585l53.312,-26.645Z" style="fill:#111;fill-opacity:0.98;"/><path d="M42.294,80.468c0.299,0.255 2.408,0.279 3.202,-0.019c1.023,-0.383 3.541,-2.162 3.207,-1.217c-0.102,0.288 -0.244,0.118 -3.155,1.885c-1.518,0.922 -1.453,1.018 -3.022,1.862c-0.809,0.435 -0.807,-0.088 -0.708,-0.155c0.688,-0.468 2.816,-1.585 1.748,-1.662c-2.187,-0.159 -2.292,-0.098 -2.469,0.002c-0.555,0.317 -6.737,3.843 -6.854,4.14c-0.618,1.56 4.158,0.588 4.519,0.514c2.822,-0.575 6.995,-2.931 5.936,-1.71c-0.259,0.298 -0.402,-0 -4.323,2.097c-0.502,0.269 -0.29,1.249 -1.709,0.816c-0.485,-0.148 -8.585,-0.677 -8.927,-0.69c-0.048,-0.002 -1.434,-0.055 -0.374,-0.482c0.898,-0.361 1.071,0.366 2.436,-0.575c0.21,-0.145 0.313,0.075 2.74,-1.592c1.85,-1.271 2.249,-1.098 9.175,-5.407c2.054,-1.278 3.441,-1.799 2.938,-1.935c-2.863,-0.772 3.365,-0.356 8.791,-0.439c0.072,-0.001 1.615,-0.025 0.783,0.457c-0.732,0.423 -4.07,3.12 -4.082,2.209c-0.002,-0.189 0.954,-0.708 0.594,-1.766c-0.175,-0.514 -3.14,-0.689 -4.449,0.085c-5.535,3.274 -5.585,3.192 -5.997,3.582Z" style="fill:#090909;fill-opacity:0.97;"/><path d="M64.192,75.983c0.024,0.056 0.048,0.112 0.072,0.168c-0.023,0.032 0.121,0.215 -0.425,0.368c-1.167,0.326 -1.329,-0.166 -2.803,1.011c-1.605,1.282 -3.657,2.824 -5.465,4.482c-0.457,0.419 -5.777,4.118 -2.185,2.164c2.015,-1.096 13.469,-6.623 13.7,-6.944c0.345,-0.481 0.07,-0.525 0.081,-0.933c0.016,-0.602 1.034,-0.144 2.35,-0.213c0.148,-0.008 3.113,-0.164 1.795,0.437c-1.003,0.458 -1.015,0.359 -2.081,0.645c-1.777,0.478 -6.17,2.71 -9.828,4.52c-6.741,3.337 -6.88,3.455 -7.399,3.894c-0.895,0.758 -2.504,0.685 -4.028,2.118c-0.416,0.392 -3.101,-0.249 -0.627,-1.171c0.528,-0.197 11.292,-8.751 11.636,-9.435c0.265,-0.526 -0.418,-0.782 0.104,-1.029c0.378,-0.179 0.396,0.029 5.104,-0.082Z" style="fill:#0a0a0a;fill-opacity:0.98;"/><path d="M42.387,96.519c0.038,-0.012 0.03,-0.1 2.851,-0.358c0.524,-0.048 1.015,0.432 1.376,-0.014c0.335,-0.413 0.41,-0.264 2.618,-0.78c7.262,-1.697 7.204,-1.943 7.838,-2.065c3.325,-0.639 3.196,-1.1 5.886,-2.195c2.229,-0.907 2.114,-1.322 2.295,-1.232c0.927,0.461 -3.369,2.753 -3.698,2.928c-7.666,4.088 -18.003,4.658 -18.382,4.459c-0.621,-0.327 -1.221,-0.133 -0.785,-0.743Z" style="fill:#111;fill-opacity:1;"/><path d="M59.923,94.306c1.737,-0.798 1.726,-0.839 1.911,-0.823c0.377,0.031 0.243,0.282 0.228,0.31c-0.479,0.892 -0.633,0.708 -1.481,1.187c-2.481,1.401 -8.649,2.91 -9.637,2.671c-2.41,-0.584 1.419,-0.935 1.718,-1.012c5.669,-1.463 6.719,-2.036 7.261,-2.332Z" style="fill:#111;fill-opacity:1;"/></g></g><g><path d="M47.709,69.393c-0.7,-1.12 -0.929,-2.526 -0.512,-3.887c0.351,-1.145 1.039,-2.263 2.151,-3.248c1.287,-1.139 3.434,-2.201 6.08,-2.957c5.786,-1.652 14.287,-2.162 16.862,-2.255c0.389,-0.069 1.127,-0.167 1.879,-0.088c1.814,0.191 6.756,1.648 10.426,0.814c0.98,-0.223 2.527,-0.259 4.243,-0.047c2.721,0.335 6.066,1.196 6.582,1.33c2.353,0.611 2.519,0.076 9.535,3.215c3.441,1.54 4.681,1.556 5.433,1.752c1.181,0.308 2.036,0.726 3.065,1.734c0.833,0.816 1.342,1.841 1.533,2.949c0.221,1.281 -0.136,2.688 -0.211,2.931c-0.217,0.708 -0.631,1.497 -1.247,2.285c0.218,0.236 0.414,0.498 0.585,0.785c1.312,2.202 0.624,5.045 -1.529,6.408c-2.81,2.193 -4.648,2.871 -7.366,3.383c-2.005,0.378 -4.69,0.604 -9.521,1.702c-9.536,2.168 -19.622,0.028 -23.056,-0.333c-1.986,-0.209 -13.136,-2.424 -18.456,-4.591c-1.921,-0.783 -3.291,-1.748 -4.079,-2.561c-0.175,-0.035 -0.341,-0.071 -0.495,-0.123c-0.903,-0.304 -1.697,-0.736 -2.41,-1.357l-0.885,-1.014l-0.645,-1.463l-0.139,-1.572l0.268,-1.273c0.229,-0.649 0.776,-1.65 1.908,-2.519Zm8.862,9.155l-0.994,0.672c0.307,-0.141 0.656,-0.369 0.994,-0.672Zm15.775,-21.504c0.41,-0.014 0.657,-0.017 0.702,-0.013c-0.258,-0.027 -0.511,-0.011 -0.702,0.013Zm-0.304,0.051c-0.022,0.005 -0.034,0.008 -0.034,0.008c0,0 0.012,-0.003 0.034,-0.008Z" style="fill:#fafafa;"/><g><path d="M114.36,69.203c0.128,0.592 0.453,2.105 -0.736,7.702c-2.946,13.866 -60.379,11.568 -66.672,-2.022c-0.748,-1.616 0.082,-2.987 0.236,-5.221c0.389,-5.658 1.593,-7.815 10.7,-10.131c15.952,-4.057 52.687,0.055 56.279,9.082c0.076,0.192 0.116,0.399 0.192,0.591l-65.348,-2.459c0.258,6.08 18.978,12.17 39.204,11.679c18.806,-0.456 34.01,-7.174 18.489,-13.829c-17.202,-7.376 -54.732,-6.951 -57.588,1.242c-0.071,0.204 -0.101,0.835 -0.104,0.908l65.348,2.459l-59.193,6.958c-1.422,0.016 -5.415,-3.283 -5.873,-3.219c-1.515,0.214 0.915,1.737 1.057,1.826c4.422,2.772 6.628,2.37 5.157,2.82c-1.381,0.423 -3.477,-0.742 -3.743,-0.89c-1.816,-1.009 -3.714,-2.634 -2.483,-0.929c4.734,6.559 33.459,12.611 54.307,6.922c2.76,-0.753 7.359,-2.759 6.319,-3.15c-0.087,-0.033 -1.678,1.215 -3.343,0.966c-1.264,-0.189 0.833,-0.785 0.9,-0.828c0.263,-0.17 4.104,-1.649 3.382,-2.102c-0.001,-0.001 -3.978,1.977 -5.908,2.102c-0.801,0.052 -1.259,-0.971 -0.682,-0.981c1.532,-0.027 1.529,-0.055 2.99,-0.631c0.218,-0.086 0.65,-0.023 2.56,-0.982c2.405,-1.207 0.824,-1.8 0.726,-1.78c-0.426,0.086 -5.354,3.405 -18.583,4.293c-14.202,0.953 -34.03,-1.448 -42.239,-8.812c-0.337,-0.303 -0.682,0.021 -0.426,0.33c0.685,0.827 1.677,1.382 1.978,2.021c0.454,0.961 3.094,1.375 4.308,2.549c0.29,0.28 -0.039,0.269 -0.405,0.476l59.193,-6.958Z" style="fill:#111;fill-opacity:0.98;"/><path d="M73.841,64.225c0.194,0.341 2.17,1.08 3.018,1.07c1.092,-0.013 4.065,-0.831 3.43,-0.055c-0.193,0.236 -0.269,0.028 -3.608,0.702c-1.74,0.351 -1.713,0.464 -3.475,0.725c-0.908,0.134 -0.729,-0.357 -0.613,-0.387c0.806,-0.206 3.187,-0.534 2.208,-0.97c-2.003,-0.892 -2.123,-0.871 -2.323,-0.836c-0.63,0.109 -7.642,1.327 -7.853,1.566c-1.111,1.258 3.711,1.965 4.076,2.018c2.85,0.418 7.575,-0.381 6.164,0.407c-0.345,0.193 -0.378,-0.137 -4.778,0.505c-0.564,0.082 -0.697,1.076 -1.885,0.187c-0.406,-0.304 -7.845,-3.552 -8.162,-3.681c-0.044,-0.018 -1.33,-0.539 -0.188,-0.58c0.967,-0.035 0.883,0.708 2.486,0.287c0.247,-0.065 0.269,0.177 3.118,-0.567c2.172,-0.567 2.488,-0.269 10.466,-1.97c2.366,-0.504 3.848,-0.524 3.42,-0.823c-2.43,-1.699 3.286,0.808 8.417,2.573c0.069,0.024 1.527,0.525 0.581,0.695c-0.832,0.15 -4.888,1.552 -4.589,0.692c0.062,-0.179 1.137,-0.342 1.158,-1.46c0.01,-0.543 -2.719,-1.715 -4.213,-1.431c-6.318,1.2 -6.337,1.106 -6.857,1.333Z" style="fill:#090909;fill-opacity:0.97;"/><path d="M95.961,67.443c0.003,0.061 0.007,0.121 0.01,0.182c-0.033,0.023 0.041,0.243 -0.525,0.201c-1.208,-0.09 -1.194,-0.607 -2.98,-0.001c-1.945,0.661 -4.399,1.415 -6.662,2.36c-0.572,0.239 -6.832,1.912 -2.79,1.294c2.267,-0.347 14.918,-1.656 15.244,-1.879c0.488,-0.335 0.244,-0.47 0.393,-0.85c0.219,-0.561 1.021,0.216 2.283,0.598c0.142,0.043 2.983,0.902 1.54,1.021c-1.099,0.09 -1.077,-0.008 -2.177,-0.1c-1.833,-0.154 -6.724,0.453 -10.779,0.914c-7.473,0.849 -7.645,0.913 -8.281,1.15c-1.099,0.409 -2.588,-0.207 -4.508,0.625c-0.525,0.227 -2.833,-1.287 -0.192,-1.314c0.563,-0.006 13.592,-4.396 14.149,-4.923c0.428,-0.405 -0.128,-0.877 0.447,-0.932c0.416,-0.04 0.362,0.161 4.829,1.656Z" style="fill:#0a0a0a;fill-opacity:0.98;"/><path d="M68.477,79.354c0.04,0.002 0.062,-0.084 2.804,0.631c0.51,0.133 0.808,0.751 1.299,0.454c0.455,-0.275 0.475,-0.109 2.728,0.155c7.407,0.87 7.435,0.619 8.074,0.719c3.344,0.528 3.379,0.05 6.281,-0.066c2.405,-0.096 2.438,-0.526 2.577,-0.379c0.716,0.749 -4.104,1.445 -4.472,1.498c-8.598,1.242 -18.515,-1.732 -18.804,-2.048c-0.473,-0.518 -1.103,-0.54 -0.486,-0.965Z" style="fill:#111;fill-opacity:1;"/><path d="M85.723,83.228c1.905,-0.161 1.908,-0.203 2.077,-0.126c0.344,0.158 0.133,0.347 0.109,0.369c-0.754,0.676 -0.836,0.451 -1.796,0.613c-2.809,0.475 -9.123,-0.2 -9.971,-0.761c-2.069,-1.368 1.652,-0.397 1.96,-0.368c5.829,0.549 7.011,0.367 7.622,0.273Z" style="fill:#111;fill-opacity:1;"/></g></g><g><path d="M20.876,75.753c0.236,-0.316 0.708,-0.893 1.311,-1.35c1.454,-1.102 6.056,-3.419 8.162,-6.538c0.562,-0.833 1.667,-1.918 3.063,-2.937c2.214,-1.617 5.243,-3.277 5.711,-3.532c2.134,-1.164 1.889,-1.668 9.154,-4.177c3.564,-1.231 4.48,-2.067 5.162,-2.438c1.072,-0.583 1.982,-0.863 3.422,-0.832c1.165,0.026 2.238,0.425 3.135,1.102c1.037,0.783 1.739,2.054 1.851,2.282c0.326,0.665 0.563,1.524 0.653,2.52c0.32,0.023 0.643,0.08 0.964,0.172c2.464,0.709 3.906,3.253 3.268,5.72c-0.55,3.522 -1.426,5.273 -3.059,7.506c-1.204,1.647 -3.008,3.649 -5.781,7.755c-5.473,8.104 -14.294,13.442 -17.046,15.528c-1.592,1.206 -11.24,7.218 -16.603,9.276c-1.936,0.743 -3.597,0.976 -4.727,0.923c-0.152,0.095 -0.297,0.182 -0.445,0.249c-0.866,0.396 -1.741,0.624 -2.686,0.659l-1.339,-0.134l-1.471,-0.626l-1.176,-1.052l-0.675,-1.112c-0.277,-0.63 -0.563,-1.734 -0.332,-3.143c-1.277,-0.339 -2.406,-1.207 -3.033,-2.485c-0.527,-1.075 -0.79,-2.362 -0.652,-3.841c0.16,-1.711 0.999,-3.955 2.412,-6.316c3.09,-5.163 8.943,-11.35 10.757,-13.179Zm0.04,-0.04c0.289,-0.291 0.467,-0.462 0.504,-0.49c-0.207,0.157 -0.38,0.341 -0.504,0.49Zm-0.187,0.245c-0.013,0.019 -0.02,0.029 -0.02,0.029c0,0 0.007,-0.01 0.02,-0.029Zm3.389,26.232l-0.266,1.17c0.127,-0.313 0.226,-0.718 0.266,-1.17Z" style="fill:#fafafa;"/><g><path d="M59.88,55.843c0.498,0.345 1.77,1.225 4.732,6.121c7.336,12.129 -36.13,49.74 -50.016,44.131c-1.651,-0.667 -1.983,-2.235 -3.399,-3.97c-3.586,-4.393 -4.184,-6.79 0.875,-14.71c8.861,-13.871 38.47,-36.001 47.264,-31.873c0.187,0.088 0.358,0.212 0.544,0.299l-49.349,42.907c4.347,4.259 22.168,-4.104 36.586,-18.298c13.406,-13.197 19.901,-28.497 4.027,-22.735c-17.593,6.387 -44.678,32.368 -41.158,40.299c0.087,0.197 0.498,0.678 0.545,0.734l49.349,-42.907l-38.418,45.566c-1.026,0.984 -6.196,1.309 -6.486,1.669c-0.958,1.192 1.856,0.641 2.019,0.609c5.122,-1.003 6.456,-2.805 5.691,-1.47c-0.719,1.253 -3.043,1.837 -3.339,1.911c-2.016,0.506 -4.511,0.619 -2.446,1.021c7.94,1.546 33.033,-13.688 44.349,-32.099c1.498,-2.437 3.48,-7.046 2.455,-6.62c-0.086,0.036 -0.393,2.034 -1.778,2.991c-1.051,0.727 0.071,-1.142 0.09,-1.22c0.076,-0.304 1.865,-4.01 1.029,-3.847c-0.001,0 -1.55,4.163 -2.872,5.574c-0.549,0.586 -1.582,0.153 -1.168,-0.249c1.099,-1.067 1.078,-1.087 1.75,-2.506c0.1,-0.211 0.458,-0.461 1.196,-2.468c0.929,-2.525 -0.63,-1.877 -0.688,-1.795c-0.252,0.354 -1.576,6.146 -10.618,15.843c-9.707,10.41 -25.814,22.221 -36.838,22.465c-0.453,0.01 -0.483,0.482 -0.085,0.532c1.065,0.134 2.168,-0.139 2.825,0.121c0.989,0.39 3.197,-1.114 4.886,-1.088c0.403,0.006 0.155,0.223 0.03,0.625l38.418,-45.566Z" style="fill:#111;fill-opacity:0.98;"/><path d="M26.918,79.929c0.375,0.116 2.321,-0.697 2.934,-1.284c0.788,-0.756 2.397,-3.387 2.464,-2.387c0.021,0.304 -0.177,0.204 -2.152,2.98c-1.029,1.447 -0.932,1.51 -2.039,2.905c-0.571,0.719 -0.776,0.239 -0.711,0.137c0.447,-0.701 1.959,-2.57 0.948,-2.218c-2.071,0.719 -2.144,0.817 -2.267,0.979c-0.385,0.511 -4.666,6.195 -4.657,6.514c0.05,1.678 4.051,-1.106 4.353,-1.316c2.364,-1.644 5.265,-5.459 4.774,-3.919c-0.12,0.377 -0.37,0.159 -3.14,3.637c-0.355,0.446 0.228,1.262 -1.247,1.426c-0.504,0.056 -8.152,2.775 -8.472,2.898c-0.044,0.017 -1.339,0.517 -0.534,-0.295c0.682,-0.687 1.128,-0.087 2.01,-1.491c0.136,-0.216 0.317,-0.055 1.887,-2.547c1.196,-1.899 1.631,-1.898 6.287,-8.596c1.381,-1.986 2.448,-3.014 1.932,-2.94c-2.935,0.423 2.95,-1.658 7.9,-3.881c0.066,-0.03 1.473,-0.662 0.9,0.11c-0.505,0.678 -2.504,4.476 -2.874,3.644c-0.077,-0.173 0.596,-1.027 -0.154,-1.857c-0.364,-0.403 -3.157,0.609 -4.052,1.838c-3.788,5.197 -3.866,5.141 -4.09,5.663Z" style="fill:#090909;fill-opacity:0.97;"/><path d="M45.255,67.145c0.044,0.042 0.088,0.084 0.132,0.126c-0.008,0.039 0.196,0.15 -0.245,0.506c-0.943,0.761 -1.286,0.374 -2.174,2.038c-0.967,1.812 -2.241,4.041 -3.246,6.279c-0.254,0.565 -3.676,6.068 -1.15,2.852c1.417,-1.804 9.749,-11.413 9.834,-11.798c0.127,-0.578 -0.144,-0.51 -0.295,-0.889c-0.224,-0.559 0.893,-0.541 2.074,-1.125c0.133,-0.066 2.793,-1.383 1.821,-0.309c-0.74,0.817 -0.791,0.731 -1.656,1.416c-1.443,1.142 -4.594,4.93 -7.237,8.04c-4.871,5.732 -4.952,5.895 -5.254,6.503c-0.522,1.05 -2.029,1.62 -2.861,3.539c-0.227,0.525 -2.947,0.999 -1.039,-0.827c0.407,-0.39 6.908,-12.504 6.953,-13.27c0.035,-0.588 -0.693,-0.553 -0.312,-0.986c0.276,-0.314 0.375,-0.13 4.655,-2.095Z" style="fill:#0a0a0a;fill-opacity:0.98;"/><path d="M33.355,94.633c0.031,-0.026 -0.013,-0.104 2.477,-1.457c0.463,-0.252 1.103,-0.005 1.258,-0.557c0.144,-0.512 0.272,-0.405 2.096,-1.753c5.998,-4.432 5.847,-4.635 6.381,-4.998c2.801,-1.902 2.499,-2.275 4.537,-4.345c1.688,-1.715 1.418,-2.051 1.62,-2.04c1.034,0.057 -2.005,3.861 -2.237,4.152c-5.422,6.788 -14.69,11.402 -15.117,11.368c-0.7,-0.054 -1.174,0.36 -1.015,-0.371Z" style="fill:#111;fill-opacity:1;"/><path d="M48.585,85.662c1.28,-1.421 1.253,-1.453 1.429,-1.512c0.359,-0.12 0.334,0.163 0.332,0.195c-0.087,1.009 -0.301,0.901 -0.89,1.676c-1.724,2.269 -6.792,6.095 -7.794,6.266c-2.445,0.417 0.933,-1.42 1.177,-1.609c4.627,-3.587 5.365,-4.528 5.746,-5.015Z" style="fill:#111;fill-opacity:1;"/></g></g><g><path d="M68.896,43.502c0.344,-0.193 1.01,-0.528 1.747,-0.7c1.776,-0.414 6.923,-0.658 10.117,-2.649c0.853,-0.532 2.303,-1.073 3.993,-1.436c2.681,-0.575 6.123,-0.859 6.654,-0.902c2.423,-0.195 2.404,-0.754 10.062,-0.089c3.756,0.326 4.933,-0.065 5.708,-0.126c1.217,-0.096 2.162,0.019 3.464,0.633c1.054,0.498 1.871,1.299 2.415,2.283c0.628,1.138 0.753,2.584 0.762,2.838c0.027,0.74 -0.106,1.621 -0.429,2.568c0.283,0.152 0.555,0.335 0.81,0.55c1.962,1.65 2.243,4.561 0.657,6.555c-1.936,2.994 -3.449,4.236 -5.85,5.611c-1.771,1.014 -4.233,2.108 -8.437,4.73c-8.298,5.175 -18.528,6.46 -21.89,7.245c-1.945,0.454 -13.205,2.018 -18.941,1.714c-2.071,-0.11 -3.683,-0.572 -4.693,-1.081c-0.177,0.025 -0.346,0.045 -0.508,0.046c-0.953,0.009 -1.845,-0.139 -2.721,-0.492l-1.168,-0.668l-1.089,-1.17l-0.646,-1.439l-0.164,-1.29c0.004,-0.688 0.192,-1.813 0.976,-3.006c-1.028,-0.829 -1.706,-2.082 -1.758,-3.504c-0.044,-1.197 0.239,-2.479 0.968,-3.773c0.842,-1.498 2.523,-3.206 4.774,-4.787c4.924,-3.458 12.788,-6.727 15.19,-7.659Zm0.053,-0.02c0.382,-0.148 0.615,-0.232 0.659,-0.242c-0.253,0.059 -0.486,0.157 -0.659,0.242Zm-0.27,0.148c-0.019,0.012 -0.03,0.019 -0.03,0.019c0,0 0.01,-0.007 0.03,-0.019Zm-7.582,25.34l-0.719,0.961c0.244,-0.234 0.499,-0.564 0.719,-0.961Z" style="fill:#fafafa;"/><g><path d="M112.627,41.192c0.315,0.518 1.118,1.84 1.83,7.517c1.764,14.065 -53.248,30.727 -63.649,19.951c-1.237,-1.281 -0.902,-2.849 -1.489,-5.01c-1.487,-5.473 -1.058,-7.905 6.787,-13.08c13.739,-9.063 49.792,-17.224 56.145,-9.874c0.135,0.156 0.24,0.339 0.375,0.495l-62.541,19.105c2.237,5.66 21.919,5.275 40.866,-1.821c17.617,-6.598 29.777,-17.929 12.932,-19.127c-18.669,-1.328 -53.985,11.38 -53.998,20.056c-0,0.216 0.179,0.822 0.199,0.892l62.541,-19.105l-53.639,25.982c-1.338,0.481 -6.192,-1.326 -6.604,-1.115c-1.361,0.699 1.434,1.341 1.597,1.378c5.087,1.168 7.039,0.066 5.797,0.974c-1.167,0.852 -3.528,0.439 -3.828,0.387c-2.047,-0.358 -4.372,-1.271 -2.65,-0.063c6.623,4.644 35.745,0.943 53.575,-11.268c2.36,-1.616 6.047,-5.02 4.937,-5.047c-0.093,-0.002 -1.187,1.698 -2.841,2.008c-1.256,0.236 0.529,-1.015 0.579,-1.078c0.193,-0.247 3.336,-2.903 2.505,-3.095c-0.001,-0 -3.11,3.172 -4.892,3.923c-0.74,0.312 -1.507,-0.504 -0.966,-0.703c1.438,-0.527 1.427,-0.554 2.618,-1.577c0.177,-0.152 0.606,-0.235 2.097,-1.767c1.876,-1.929 0.189,-1.971 0.102,-1.92c-0.374,0.22 -3.941,4.972 -16.148,10.149c-13.104,5.557 -32.623,9.79 -42.793,5.525c-0.418,-0.175 -0.638,0.244 -0.295,0.451c0.918,0.556 2.037,0.756 2.532,1.26c0.744,0.759 3.374,0.284 4.906,0.995c0.366,0.17 0.051,0.267 -0.227,0.583l53.639,-25.982Z" style="fill:#111;fill-opacity:0.98;"/><path d="M72.715,49.776c0.296,0.259 2.404,0.309 3.202,0.021c1.028,-0.37 3.568,-2.118 3.222,-1.177c-0.105,0.286 -0.245,0.115 -3.178,1.846c-1.529,0.903 -1.466,1 -3.045,1.824c-0.814,0.425 -0.806,-0.098 -0.706,-0.164c0.693,-0.459 2.836,-1.55 1.768,-1.64c-2.185,-0.186 -2.291,-0.127 -2.469,-0.028c-0.559,0.31 -6.784,3.76 -6.905,4.055c-0.638,1.553 4.151,0.639 4.512,0.57c2.829,-0.54 7.031,-2.844 5.956,-1.636c-0.263,0.295 -0.402,-0.005 -4.348,2.044c-0.506,0.263 -0.306,1.245 -1.719,0.795c-0.483,-0.154 -8.576,-0.784 -8.918,-0.801c-0.048,-0.002 -1.433,-0.073 -0.368,-0.486c0.902,-0.35 1.066,0.38 2.443,-0.544c0.212,-0.142 0.312,0.079 2.76,-1.558c1.866,-1.248 2.262,-1.07 9.242,-5.293c2.069,-1.252 3.463,-1.757 2.961,-1.899c-2.853,-0.808 3.369,-0.314 8.795,-0.33c0.072,-0 1.615,-0.005 0.777,0.466c-0.737,0.414 -4.109,3.069 -4.109,2.158c0,-0.189 0.962,-0.696 0.616,-1.759c-0.169,-0.517 -3.131,-0.728 -4.45,0.03c-5.576,3.205 -5.624,3.122 -6.041,3.507Z" style="fill:#090909;fill-opacity:0.97;"/><path d="M94.668,45.563c0.023,0.056 0.046,0.112 0.069,0.169c-0.023,0.032 0.118,0.217 -0.43,0.362c-1.171,0.311 -1.327,-0.182 -2.815,0.976c-1.621,1.262 -3.692,2.779 -5.52,4.414c-0.462,0.413 -5.827,4.046 -2.211,2.137c2.028,-1.071 13.55,-6.456 13.785,-6.774c0.351,-0.476 0.077,-0.525 0.092,-0.932c0.023,-0.602 1.036,-0.131 2.352,-0.184c0.149,-0.006 3.114,-0.126 1.789,0.459c-1.008,0.445 -1.02,0.346 -2.089,0.619c-1.783,0.456 -6.203,2.633 -9.884,4.398c-6.782,3.253 -6.923,3.369 -7.446,3.802c-0.904,0.747 -2.513,0.653 -4.054,2.068c-0.421,0.387 -3.098,-0.287 -0.613,-1.178c0.53,-0.19 11.399,-8.61 11.753,-9.29c0.271,-0.523 -0.408,-0.787 0.117,-1.028c0.38,-0.174 0.395,0.034 5.105,-0.019Z" style="fill:#0a0a0a;fill-opacity:0.98;"/><path d="M72.61,65.827c0.039,-0.011 0.031,-0.1 2.856,-0.323c0.525,-0.041 1.01,0.445 1.376,0.003c0.34,-0.409 0.413,-0.259 2.628,-0.748c7.283,-1.607 7.227,-1.854 7.863,-1.968c3.333,-0.597 3.209,-1.061 5.912,-2.122c2.24,-0.879 2.13,-1.296 2.31,-1.204c0.922,0.473 -3.403,2.711 -3.734,2.882c-7.716,3.993 -18.059,4.435 -18.436,4.231c-0.617,-0.335 -1.219,-0.149 -0.776,-0.752Z" style="fill:#111;fill-opacity:1;"/><path d="M90.172,63.832c1.747,-0.777 1.736,-0.817 1.921,-0.8c0.377,0.036 0.239,0.285 0.224,0.313c-0.49,0.886 -0.642,0.7 -1.495,1.168c-2.498,1.37 -8.685,2.802 -9.669,2.551c-2.403,-0.614 1.43,-0.917 1.73,-0.99c5.686,-1.393 6.744,-1.952 7.29,-2.242Z" style="fill:#111;fill-opacity:1;"/></g></g><g><g id="Layer2"><path d="M32.895,42.743c0.302,-0.28 0.948,-0.832 1.732,-1.224c2.47,-1.235 9.954,-3.563 13.895,-7.503c0.882,-0.882 2.526,-1.946 4.507,-2.895c3.466,-1.66 8.087,-3.207 8.799,-3.445c3.267,-1.089 3.031,-1.804 13.831,-3.604c5.716,-0.953 7.313,-1.924 8.44,-2.298c1.266,-0.42 2.303,-0.561 3.864,-0.301c1.483,0.247 2.714,1.06 3.577,2.136c0.734,0.915 1.119,1.996 1.191,2.211c0.408,1.225 0.477,2.894 0.054,4.773c0.987,-0.192 2.043,-0.073 3.012,0.412c2.312,1.156 3.262,3.958 2.141,6.279c-1.491,4.353 -3.029,6.392 -5.715,8.884c-2.133,1.979 -5.22,4.313 -10.202,9.296c-9.574,9.574 -23.32,14.767 -27.692,16.952c-2.191,1.096 -13.861,5.759 -22.102,7.972c-4.616,1.239 -8.456,1.455 -10.095,0.909c-0.007,-0.002 -0.014,-0.005 -0.021,-0.007c-0.45,0.169 -0.858,0.337 -1.258,0.442c-1.021,0.266 -2.02,0.367 -3.065,0.251l-0.987,-0.211l-1.095,-0.505l-1.014,-0.833l-0.734,-1.024c-0.466,-0.865 -0.865,-2.215 -0.387,-3.953c0.151,-0.548 0.548,-1.334 1.055,-2.192c-2.058,0.094 -4.013,-1.176 -4.697,-3.226c-0.446,-1.339 -0.511,-2.874 -0.051,-4.56c0.572,-2.097 2.196,-4.719 4.579,-7.38c5.8,-6.476 16.177,-13.837 18.439,-15.356Zm29.566,15.34c3.623,-1.979 7.486,-4.441 10.928,-7.471c-0.526,0.314 -0.662,0.56 -1.015,0.825c-0.439,0.329 -0.995,0.698 -1.86,1.13c-0.86,0.43 -0.973,0.762 -1.405,1.103c-0.379,0.298 -0.837,0.621 -1.483,0.978c-0.509,0.434 -1.637,1.304 -3.374,2.173c-0.43,0.215 -1.042,0.668 -1.791,1.263Zm-29.505,-15.381c0.207,-0.138 0.335,-0.22 0.371,-0.238c-0.142,0.071 -0.27,0.159 -0.371,0.238Zm-0.203,0.177c-0.027,0.026 -0.042,0.042 -0.042,0.042c0,0 0.014,-0.015 0.042,-0.042Zm-4.964,34.75l-0.473,1.107c0.187,-0.288 0.356,-0.669 0.473,-1.107Z" style="fill:#fafafa;"/></g><g><path d="M92.36,22.974c0.644,0.571 2.29,2.028 5.474,9.263c7.888,17.923 -63.721,59.502 -82.594,48.996c-2.244,-1.249 -2.369,-3.436 -4.03,-6.077c-4.205,-6.688 -4.527,-10.05 4.612,-19.67c16.007,-16.85 63.994,-40.462 75.816,-33.031c0.251,0.158 0.471,0.361 0.721,0.519l-81.348,47.485c5.34,6.668 33.096,-0.854 57.239,-16.965c22.448,-14.98 35.349,-34.259 11.008,-29.836c-26.976,4.902 -72.176,34.247 -68.871,45.695c0.082,0.284 0.568,1.021 0.624,1.106l81.348,-47.485l-66.092,53.384c-1.713,1.111 -9.287,0.457 -9.789,0.882c-1.661,1.407 2.547,1.257 2.792,1.249c7.659,-0.272 10.004,-2.421 8.591,-0.782c-1.327,1.54 -4.833,1.836 -5.279,1.874c-3.039,0.257 -6.685,-0.118 -3.781,0.861c11.168,3.765 51.037,-11.494 71.638,-33.953c2.727,-2.973 6.65,-8.776 5.065,-8.417c-0.133,0.03 -1.033,2.662 -3.259,3.662c-1.69,0.759 0.362,-1.527 0.408,-1.628c0.179,-0.394 3.618,-5.018 2.367,-4.975c-0.001,0 -3.195,5.292 -5.433,6.917c-0.93,0.675 -2.33,-0.128 -1.639,-0.583c1.837,-1.208 1.811,-1.239 3.108,-3.013c0.193,-0.264 0.769,-0.526 2.295,-3.078c1.922,-3.212 -0.488,-2.667 -0.591,-2.569c-0.446,0.424 -3.683,7.963 -19.006,19.141c-16.449,12 -42.501,24.538 -58.551,22.537c-0.66,-0.082 -0.811,0.549 -0.245,0.7c1.515,0.406 3.177,0.271 4.072,0.76c1.346,0.736 4.892,-0.827 7.337,-0.436c0.584,0.094 0.175,0.334 -0.098,0.849l66.092,-53.384Z" style="fill:#111;fill-opacity:0.98;"/><path d="M39.065,48.518c0.518,0.236 3.526,-0.45 4.548,-1.113c1.315,-0.854 4.247,-4.065 4.117,-2.701c-0.039,0.415 -0.304,0.238 -3.799,3.567c-1.822,1.735 -1.695,1.841 -3.618,3.491c-0.991,0.85 -1.18,0.158 -1.063,0.035c0.807,-0.852 3.426,-3.054 1.879,-2.794c-3.168,0.533 -3.296,0.649 -3.511,0.842c-0.674,0.608 -8.178,7.376 -8.237,7.809c-0.309,2.275 6.129,-0.636 6.615,-0.856c3.804,-1.72 8.879,-6.256 7.818,-4.281c-0.26,0.483 -0.572,0.137 -5.382,4.245c-0.616,0.526 0.044,1.752 -2.133,1.661c-0.744,-0.031 -12.459,2.023 -12.949,2.121c-0.068,0.014 -2.06,0.415 -0.708,-0.511c1.145,-0.783 1.657,0.121 3.254,-1.588c0.246,-0.263 0.472,-0.007 3.316,-3.039c2.167,-2.31 2.798,-2.217 11.075,-10.274c2.454,-2.389 4.237,-3.551 3.471,-3.56c-4.354,-0.049 4.656,-1.615 12.343,-3.569c0.103,-0.026 2.288,-0.582 1.28,0.338c-0.886,0.809 -4.649,5.512 -4.998,4.311c-0.072,-0.25 1.098,-1.261 0.199,-2.539c-0.437,-0.621 -4.718,0.155 -6.297,1.625c-6.677,6.215 -6.777,6.122 -7.221,6.779Z" style="fill:#090909;fill-opacity:0.97;"/><path d="M68.574,35.138c0.054,0.066 0.109,0.132 0.163,0.198c-0.021,0.051 0.25,0.244 -0.47,0.631c-1.541,0.827 -1.951,0.233 -3.617,2.291c-1.814,2.242 -4.17,4.981 -6.136,7.789c-0.497,0.709 -6.712,7.414 -2.317,3.607c2.465,-2.135 16.738,-13.344 16.948,-13.847c0.315,-0.753 -0.092,-0.719 -0.226,-1.262c-0.197,-0.802 1.418,-0.541 3.265,-1.081c0.208,-0.061 4.367,-1.276 2.712,-0.032c-1.259,0.947 -1.313,0.82 -2.725,1.561c-2.353,1.236 -7.786,5.684 -12.327,9.323c-8.369,6.707 -8.524,6.91 -9.101,7.668c-0.996,1.307 -3.312,1.757 -4.955,4.172c-0.449,0.66 -4.502,0.725 -1.32,-1.336c0.679,-0.44 12.863,-15.418 13.103,-16.441c0.185,-0.787 -0.88,-0.892 -0.228,-1.397c0.472,-0.365 0.573,-0.097 7.23,-1.844Z" style="fill:#0a0a0a;fill-opacity:0.98;"/><path d="M45.063,69.726c0.05,-0.029 0.005,-0.143 3.925,-1.443c0.728,-0.242 1.602,0.227 1.952,-0.486c0.325,-0.661 0.486,-0.489 3.439,-1.922c9.709,-4.715 9.536,-5.02 10.394,-5.397c4.496,-1.975 4.143,-2.543 7.569,-4.906c2.839,-1.958 2.524,-2.469 2.815,-2.411c1.488,0.295 -3.786,4.788 -4.19,5.132c-9.409,8.016 -23.904,12.285 -24.516,12.15c-1.003,-0.221 -1.785,0.238 -1.388,-0.716Z" style="fill:#111;fill-opacity:1;"/><path d="M69.197,60.837c2.179,-1.647 2.149,-1.697 2.417,-1.739c0.548,-0.087 0.448,0.29 0.437,0.333c-0.356,1.343 -0.642,1.152 -1.673,2.074c-3.017,2.698 -11.239,6.791 -12.731,6.81c-3.641,0.046 1.677,-1.719 2.074,-1.923c7.528,-3.863 8.813,-4.978 9.476,-5.554Z" style="fill:#111;fill-opacity:1;"/></g></g></g></svg>